# File created by Blade
# Date/Time:  Wed Jan 21 17:21:31 2015
# Frame Rate: 120.000 fps
#------------------------------------------------------
:FULLY-SPECIFIED
:DEGREES
873
root 18.648755 14.082005 -24.150757 -154.014360 21.634499 -196.678775
Spine -18.878482 17.957728 -32.146891
Head -24.943002 -9.498171 1.812415
LeftShoulder -4.298453 -0.420132 5.039063
LeftArm -98.420556 47.865767 -147.181940
LeftForeArm -26.074784 -0.000000 66.058956
LeftHand -23.623060 -0.000000 -2.736652
LeftHandThumb1 -26.253704 0.000000 33.147579
RightShoulder -3.434119 -8.941041 11.913743
RightArm 29.066945 -46.304086 53.975132
RightForeArm -28.750443 -0.000000 23.562496
RightHand -2.372690 -0.000000 8.771007
RightHandThumb1 -24.326973 -0.000000 -32.862282
LeftUpLeg -125.990427 -4.227845 -38.171282
LeftLeg 120.875574 -0.000000 -0.000000
LeftFoot -43.350194 26.844520 -8.781966
LeftToeBase 21.977235 -0.000000 -0.000000
RightUpLeg 14.656233 -10.245091 -21.071030
RightLeg 142.660974 -0.000000 -0.000000
RightFoot 46.722680 -16.939977 -2.580665
RightToeBase 27.610072 -0.000000 -0.000000
874
root 18.651664 14.078664 -24.150704 -154.005195 21.615612 -196.688933
Spine -18.847547 17.966829 -32.115670
Head -24.990815 -9.500074 1.714944
LeftShoulder -4.279388 -0.417332 5.012559
LeftArm -98.405879 47.871039 -147.152171
LeftForeArm -26.118135 -0.000000 66.103115
LeftHand -23.638401 -0.000000 -2.744991
LeftHandThumb1 -26.253704 0.000000 33.147579
RightShoulder -3.431389 -8.906577 11.910763
RightArm 29.105228 -46.307372 53.903165
RightForeArm -28.717298 -0.000000 23.625447
RightHand -2.479617 -0.000000 8.843815
RightHandThumb1 -24.326973 -0.000000 -32.862282
LeftUpLeg -126.003274 -4.244878 -38.202440
LeftLeg 120.873906 -0.000000 -0.000000
LeftFoot -43.312328 26.891106 -8.724422
LeftToeBase 21.985745 -0.000000 -0.000000
RightUpLeg 14.666229 -10.239959 -21.064353
RightLeg 142.686951 -0.000000 -0.000000
RightFoot 46.737937 -16.933317 -2.555025
RightToeBase 27.456955 -0.000000 -0.000000
875
root 18.652923 14.073493 -24.152675 -153.999769 21.545446 -196.721691
Spine -18.798839 17.918240 -32.061829
Head -25.018951 -9.484582 1.604542
LeftShoulder -4.262835 -0.439717 4.992794
LeftArm -98.398517 47.832699 -147.168249
LeftForeArm -26.109671 -0.000000 66.097164
LeftHand -23.636154 -0.000000 -2.750717
LeftHandThumb1 -26.253704 0.000000 33.147579
RightShoulder -3.431887 -8.913821 11.892900
RightArm 29.179165 -46.269819 53.839587
RightForeArm -28.685893 -0.000000 23.629718
RightHand -2.458308 -0.000000 8.880772
RightHandThumb1 -24.326973 -0.000000 -32.862282
LeftUpLeg -125.977978 -4.307761 -38.213049
LeftLeg 120.877266 -0.000000 -0.000000
LeftFoot -43.288860 26.869119 -8.694186
LeftToeBase 21.923070 -0.000000 -0.000000
RightUpLeg 14.711970 -10.287542 -21.070519
RightLeg 142.672684 -0.000000 -0.000000
RightFoot 46.806845 -16.970831 -2.583618
RightToeBase 27.505694 -0.000000 -0.000000
876
root 18.654238 14.068997 -24.153763 -153.986820 21.489678 -196.754879
Spine -18.751965 17.845406 -32.017929
Head -25.068485 -9.428460 1.520520
LeftShoulder -4.298681 -0.463553 4.984917
LeftArm -98.393469 47.810908 -147.168864
LeftForeArm -26.119145 -0.000000 66.105711
LeftHand -23.638529 0.000000 -2.759375
LeftHandThumb1 -26.253704 0.000000 33.147579
RightShoulder -3.411038 -8.882360 11.879201
RightArm 29.186046 -46.225060 53.837090
RightForeArm -28.664878 -0.000000 23.632044
RightHand -2.399264 -0.000000 8.896140
RightHandThumb1 -24.326973 -0.000000 -32.862282
LeftUpLeg -125.969279 -4.367125 -38.239222
LeftLeg 120.876544 -0.000000 -0.000000
LeftFoot -43.238515 26.892052 -8.608634
LeftToeBase 21.926926 -0.000000 -0.000000
RightUpLeg 14.738311 -10.309061 -21.073520
RightLeg 142.675835 -0.000000 -0.000000
RightFoot 46.843264 -16.983421 -2.576752
RightToeBase 27.464463 -0.000000 -0.000000
877
root 18.655356 14.065086 -24.154151 -153.969796 21.433467 -196.785727
Spine -18.711380 17.792198 -31.967979
Head -25.114518 -9.376499 1.406565
LeftShoulder -4.315486 -0.448611 4.963833
LeftArm -98.378690 47.832193 -147.191209
LeftForeArm -26.117103 0.000000 66.086607
LeftHand -23.629267 -0.000000 -2.779635
LeftHandThumb1 -26.253704 0.000000 33.147579
RightShoulder -3.392737 -8.862603 11.852055
RightArm 29.195408 -46.165147 53.851578
RightForeArm -28.650013 -0.000000 23.605125
RightHand -2.339476 -0.000000 8.823696
RightHandThumb1 -24.326973 -0.000000 -32.862282
LeftUpLeg -125.964995 -4.429090 -38.275326
LeftLeg 120.877353 -0.000000 -0.000000
LeftFoot -43.259578 26.831540 -8.627723
LeftToeBase 21.990931 -0.000000 -0.000000
RightUpLeg 14.757411 -10.325202 -21.070431
RightLeg 142.683321 -0.000000 -0.000000
RightFoot 46.853593 -17.018921 -2.534959
RightToeBase 27.361532 -0.000000 -0.000000
878
root 18.656462 14.062379 -24.154495 -153.952528 21.370825 -196.820722
Spine -18.671383 17.747256 -31.927401
Head -25.146197 -9.366277 1.321073
LeftShoulder -4.318883 -0.424255 4.933734
LeftArm -98.352764 47.861425 -147.195100
LeftForeArm -26.112386 -0.000000 66.068375
LeftHand -23.619725 -0.000000 -2.769205
LeftHandThumb1 -26.253704 0.000000 33.147579
RightShoulder -3.396713 -8.856838 11.839564
RightArm 29.197487 -46.053773 53.886393
RightForeArm -28.694479 0.000000 23.569365
RightHand -2.326550 -0.000000 8.755952
RightHandThumb1 -24.326973 -0.000000 -32.862282
LeftUpLeg -125.952472 -4.494485 -38.304938
LeftLeg 120.868496 -0.000000 -0.000000
LeftFoot -43.176034 26.870906 -8.520231
LeftToeBase 21.880845 -0.000000 -0.000000
RightUpLeg 14.776898 -10.343428 -21.067692
RightLeg 142.674352 -0.000000 -0.000000
RightFoot 46.877963 -17.031808 -2.553792
RightToeBase 27.452219 -0.000000 -0.000000
879
root 18.658270 14.060365 -24.154234 -153.934241 21.313756 -196.853453
Spine -18.622488 17.695822 -31.883989
Head -25.204773 -9.326835 1.250568
LeftShoulder -4.342730 -0.433292 4.899309
LeftArm -98.366615 47.874755 -147.234471
LeftForeArm -26.065072 -0.000000 66.037682
LeftHand -23.615581 -0.000000 -2.804135
LeftHandThumb1 -26.253704 0.000000 33.147579
RightShoulder -3.400136 -8.866237 11.815635
RightArm 29.235096 -45.913458 53.918269
RightForeArm -28.511605 0.000000 23.521144
RightHand -2.633310 -0.000000 8.296565
RightHandThumb1 -24.326973 -0.000000 -32.862282
LeftUpLeg -125.942987 -4.551622 -38.334545
LeftLeg 120.853829 -0.000000 -0.000000
LeftFoot -43.126564 26.892625 -8.441637
LeftToeBase 21.834347 -0.000000 -0.000000
RightUpLeg 14.788157 -10.340571 -21.055854
RightLeg 142.669505 -0.000000 -0.000000
RightFoot 46.876998 -16.973469 -2.513848
RightToeBase 27.385263 -0.000000 -0.000000
